# xmcd
#
# Track frame offsets:
#	150
#	86437
#	117500
#	146737
#	162687
#	188237
#	237562
#
# Disc length: 3296 seconds
#
# Revision: 1
# Processed by: cddbd v1.5.1PL0 Copyright (c) Steve Scherf et al.
# Submitted via: CDex 1.50Beta5
#
DISCID=650cde07
DTITLE=山下洋輔 - フラグメンツ 1999
DYEAR=1999
DGENRE=Jazz
TTITLE0=フラグメンツ
TTITLE1=フーズ・バレンタイン
TTITLE2=オルタード・リーブス
TTITLE3=ブライトネス
TTITLE4=カンゾ先生メイン・テーマ
TTITLE5=パイカジ組曲
TTITLE6=アナザー・オータム
EXTD=
EXTT0=
EXTT1=
EXTT2=
EXTT3=
EXTT4=
EXTT5=
EXTT6=
PLAYORDER=
